<svg xmlns="http://www.w3.org/2000/svg" xmlns:xlink="http://www.w3.org/1999/xlink" width="260" height="46" viewBox="0 0 260 46">
  <defs>
    <clipPath id="clip-path">
      <rect id="Rectángulo_51" data-name="Rectángulo 51" width="260" height="46" transform="translate(143 168)" fill="#fff" stroke="#707070" stroke-width="1"/>
    </clipPath>
    <linearGradient id="linear-gradient" x2="1" gradientUnits="objectBoundingBox">
      <stop offset="0" stop-color="#01648b"/>
      <stop offset="1" stop-color="#5bd0a4"/>
    </linearGradient>
  </defs>
  <g id="LOGO" transform="translate(-143 -168)">
    <g id="Enmascarar_grupo_16" data-name="Enmascarar grupo 16" clip-path="url(#clip-path)">
      <g id="default-monochrome" transform="translate(142.771 169.713)">
        <g id="_38da8b14-2c0b-4b25-960c-b124cf141954" data-name="38da8b14-2c0b-4b25-960c-b124cf141954" transform="translate(56.431 3.77)">
          <path id="Trazado_2" data-name="Trazado 2" d="M13.285,24.329h0a.287.287,0,0,1,.272,0h0q.091.045.091.226h0l.068,1.245h0a.5.5,0,0,1-.339.566h0a7.811,7.811,0,0,1-1.629.5h0a8.755,8.755,0,0,1-1.675.158h0a7.4,7.4,0,0,1-6.246-3.349h0a12.459,12.459,0,0,1-1.584-3.689h0a16.841,16.841,0,0,1-.521-4.142h0A15.886,15.886,0,0,1,2.241,11.9h0A12.128,12.128,0,0,1,3.825,8.215h0a7.383,7.383,0,0,1,6.246-3.372h0A8.755,8.755,0,0,1,11.746,5h0a7.067,7.067,0,0,1,1.629.521h0a.5.5,0,0,1,.339.566h0L13.647,7.31h0q0,.2-.091.249h0a.351.351,0,0,1-.272-.023h0a9.636,9.636,0,0,0-1.494-.5h0a6.4,6.4,0,0,0-1.72-.2h0A5.288,5.288,0,0,0,5.545,9.664h0a10.792,10.792,0,0,0-1.222,3.055h0a14.209,14.209,0,0,0-.385,3.123h0a14.926,14.926,0,0,0,.385,3.3h0A10.792,10.792,0,0,0,5.545,22.2h0a5.288,5.288,0,0,0,4.526,2.829h0a7.329,7.329,0,0,0,1.788-.181h0A13.871,13.871,0,0,0,13.285,24.329Zm14.892-5.567h0a10.223,10.223,0,0,0-.294-2.444h0a8.063,8.063,0,0,0-.883-2.2h0a3.686,3.686,0,0,0-3.259-1.9h0a3.574,3.574,0,0,0-3.282,1.9h0a7.57,7.57,0,0,0-.86,2.2h0a11.034,11.034,0,0,0-.272,2.444h0a12.57,12.57,0,0,0,.249,2.557h0a5.205,5.205,0,0,0,.883,2.059h0a4.018,4.018,0,0,0,3.282,1.946h0A3.512,3.512,0,0,0,27,23.378h0a5.457,5.457,0,0,0,.905-2.059h0A11.56,11.56,0,0,0,28.176,18.762Zm2.173,0h0a13.493,13.493,0,0,1-.385,3.282h0a7.067,7.067,0,0,1-1.222,2.58h0a7.347,7.347,0,0,1-2.2,1.924h0a5.682,5.682,0,0,1-2.806.679h0a5.811,5.811,0,0,1-2.829-.679h0a7.347,7.347,0,0,1-2.2-1.924h0A9.43,9.43,0,0,1,17.562,22h0a12.947,12.947,0,0,1-.385-3.236h0A10.29,10.29,0,0,1,18.716,12.9h0a5.8,5.8,0,0,1,5.024-2.58h0a6.06,6.06,0,0,1,2.829.634h0A5.98,5.98,0,0,1,28.742,12.9h0A10.028,10.028,0,0,1,30.349,18.762ZM45.625,3.712V26.3h0q0,.407-.453.407H43.951q-.453,0-.453-.407h0V23.99h0a4.509,4.509,0,0,1-4.436,3.033h0a5.149,5.149,0,0,1-2.648-.7h0a6.091,6.091,0,0,1-2.037-1.992h0a9.164,9.164,0,0,1-1.222-2.852h0a13.7,13.7,0,0,1-.362-3.191h0a9.7,9.7,0,0,1,1.652-5.477h0a5.24,5.24,0,0,1,4.617-2.489h0a4.615,4.615,0,0,1,2.716.792h0a5.115,5.115,0,0,1,1.72,2.037h0V3.712h0q0-.407.453-.407h1.222q.453,0,.453.407ZM35.034,18.626h0a10.025,10.025,0,0,0,.2,2.15h0a8.226,8.226,0,0,0,.747,2.173h0A4.472,4.472,0,0,0,37.3,24.578h0a3.127,3.127,0,0,0,1.969.611h0a3.091,3.091,0,0,0,1.946-.611h0a4.679,4.679,0,0,0,1.335-1.629h0a7.19,7.19,0,0,0,.7-2.173h0a13.926,13.926,0,0,0,.181-2.15h0a14.322,14.322,0,0,0-.181-2.1h0a7.193,7.193,0,0,0-.7-2.2h0A4.973,4.973,0,0,0,41.212,12.7h0a3.172,3.172,0,0,0-1.946-.588h0A3.21,3.21,0,0,0,37.3,12.7h0a4.973,4.973,0,0,0-1.335,1.629h0a7.265,7.265,0,0,0-.747,2.2h0A11.107,11.107,0,0,0,35.034,18.626ZM56.9,24.736h3.779a.4.4,0,0,1,.453.453h0v1.086h0q0,.43-.453.43H50.559a.38.38,0,0,1-.43-.43h0V25.189h0q0-.453.43-.453h4.074V12.81H50.921a.4.4,0,0,1-.453-.453h0V11.271h0q0-.43.453-.43h5.545a.38.38,0,0,1,.43.43h0ZM53.637,5.7h0a1.7,1.7,0,0,1,.521-1.245h0a1.725,1.725,0,0,1,1.267-.521h0a1.7,1.7,0,0,1,1.245.521h0A1.7,1.7,0,0,1,57.19,5.7h0a1.7,1.7,0,0,1-.521,1.245h0a1.7,1.7,0,0,1-1.245.521h0a1.725,1.725,0,0,1-1.267-.521h0A1.7,1.7,0,0,1,53.637,5.7ZM77.219,17.042v9.234h0q0,.43-.453.43H75.5a.38.38,0,0,1-.43-.43h0V17.562h0a7.988,7.988,0,0,0-.792-4.142h0A2.962,2.962,0,0,0,71.584,12.2h0a3.535,3.535,0,0,0-2.829,1.358h0a6.152,6.152,0,0,0-1.132,4.051h0v8.668h0q0,.43-.453.43H65.9q-.453,0-.453-.43h0V14.869h0V12.742h0q-.023-.769-.091-1.471h0a.337.337,0,0,1,.113-.317h0a.512.512,0,0,1,.339-.113h1.132q.453,0,.453.43h0v1.788h0a5.138,5.138,0,0,1,1.856-2.014h0a4.762,4.762,0,0,1,2.512-.656h0a4.86,4.86,0,0,1,4.119,1.743h0a7.923,7.923,0,0,1,1.335,4.911ZM81.927,30.87h0a.357.357,0,0,1-.272-.453h0l.068-1.426h0q0-.407.407-.181h0a13.564,13.564,0,0,0,2.173.769h0a8.619,8.619,0,0,0,1.856.226h0a4.165,4.165,0,0,0,3.44-1.629h0a7.909,7.909,0,0,0,1.426-4.753h0a4.942,4.942,0,0,1-1.833,2.037h0a4.874,4.874,0,0,1-2.557.679h0a5.788,5.788,0,0,1-2.489-.521h0A5.414,5.414,0,0,1,82.2,24.1h0a6.9,6.9,0,0,1-1.222-2.422h0a11.163,11.163,0,0,1-.43-3.146h0a11.657,11.657,0,0,1,.43-3.236h0A8.466,8.466,0,0,1,82.2,12.7h0a5.406,5.406,0,0,1,1.946-1.675h0a5.4,5.4,0,0,1,2.489-.566h0a4.99,4.99,0,0,1,2.671.769h0a4.837,4.837,0,0,1,1.811,1.946h0l-.045-1.924h0q0-.407.43-.407h1.177q.453,0,.453.407h0V22.9h0a12.952,12.952,0,0,1-.5,3.576h0a7.5,7.5,0,0,1-1.471,2.874h0a6.34,6.34,0,0,1-2.15,1.7h0a6.843,6.843,0,0,1-2.9.566h0a13.25,13.25,0,0,1-1.992-.158h0A13.649,13.649,0,0,1,81.927,30.87Zm.905-12.583h0a13.429,13.429,0,0,0,.158,1.969h0a7.221,7.221,0,0,0,.7,2.082h0A3.574,3.574,0,0,0,85,23.831h0a3.628,3.628,0,0,0,1.9.475h0a3.083,3.083,0,0,0,1.878-.566h0A4.29,4.29,0,0,0,90.1,22.27h0a6,6,0,0,0,.679-2.014h0a13.43,13.43,0,0,0,.158-1.969h0a13.632,13.632,0,0,0-.158-1.946h0a5.583,5.583,0,0,0-.679-2.014h0a4.29,4.29,0,0,0-1.313-1.471h0a3.083,3.083,0,0,0-1.878-.566h0a3.083,3.083,0,0,0-1.878.566h0a4.621,4.621,0,0,0-1.313,1.471h0a5.642,5.642,0,0,0-.724,2.014h0A13.631,13.631,0,0,0,82.832,18.286Zm33.608,6.427h8.623q.43,0,.43.453h0v1.109h0a.38.38,0,0,1-.43.43H114.584a.541.541,0,0,1-.339-.136h0a.573.573,0,0,1-.136-.362h0q-.023-.249-.023-.7h0V5.545h0a.4.4,0,0,1,.453-.453h1.448a.4.4,0,0,1,.453.453h0Zm19.667.023h3.779a.4.4,0,0,1,.453.453h0v1.086h0q0,.43-.453.43H129.77a.38.38,0,0,1-.43-.43h0V25.189h0q0-.453.43-.453h4.074V12.81h-3.712a.4.4,0,0,1-.453-.453h0V11.271h0q0-.43.453-.43h5.545a.38.38,0,0,1,.43.43h0ZM132.848,5.7h0a1.7,1.7,0,0,1,.521-1.245h0a1.725,1.725,0,0,1,1.267-.521h0a1.7,1.7,0,0,1,1.245.521h0A1.7,1.7,0,0,1,136.4,5.7h0a1.7,1.7,0,0,1-.521,1.245h0a1.7,1.7,0,0,1-1.245.521h0a1.725,1.725,0,0,1-1.267-.521h0A1.7,1.7,0,0,1,132.848,5.7ZM145.3,30.87h0a.357.357,0,0,1-.272-.453h0l.068-1.426h0q0-.407.407-.181h0a13.563,13.563,0,0,0,2.173.769h0a8.619,8.619,0,0,0,1.856.226h0a4.165,4.165,0,0,0,3.44-1.629h0a7.909,7.909,0,0,0,1.426-4.753h0a4.941,4.941,0,0,1-1.833,2.037h0A4.874,4.874,0,0,1,150,26.14h0a5.789,5.789,0,0,1-2.489-.521h0a5.414,5.414,0,0,1-1.946-1.516h0a6.9,6.9,0,0,1-1.222-2.422h0a11.163,11.163,0,0,1-.43-3.146h0a11.658,11.658,0,0,1,.43-3.236h0a8.466,8.466,0,0,1,1.222-2.6h0a5.406,5.406,0,0,1,1.946-1.675h0A5.4,5.4,0,0,1,150,10.456h0a4.99,4.99,0,0,1,2.671.769h0a4.837,4.837,0,0,1,1.811,1.946h0l-.045-1.924h0q0-.407.43-.407h1.177q.453,0,.453.407h0V22.9h0a12.952,12.952,0,0,1-.5,3.576h0a7.5,7.5,0,0,1-1.471,2.874h0a6.341,6.341,0,0,1-2.15,1.7h0a6.843,6.843,0,0,1-2.9.566h0a13.249,13.249,0,0,1-1.992-.158h0A13.649,13.649,0,0,1,145.3,30.87Zm.905-12.583h0a13.428,13.428,0,0,0,.158,1.969h0a7.221,7.221,0,0,0,.7,2.082h0a3.573,3.573,0,0,0,1.313,1.494h0a3.628,3.628,0,0,0,1.9.475h0a3.083,3.083,0,0,0,1.878-.566h0a4.29,4.29,0,0,0,1.313-1.471h0a6,6,0,0,0,.679-2.014h0a13.428,13.428,0,0,0,.158-1.969h0a13.629,13.629,0,0,0-.158-1.946h0a5.583,5.583,0,0,0-.679-2.014h0a4.29,4.29,0,0,0-1.313-1.471h0a3.083,3.083,0,0,0-1.878-.566h0a3.083,3.083,0,0,0-1.878.566h0a4.621,4.621,0,0,0-1.313,1.471h0a5.642,5.642,0,0,0-.724,2.014h0A13.629,13.629,0,0,0,146.2,18.286Zm26.253-.634v8.623h0a.38.38,0,0,1-.43.43h-1.267q-.453,0-.453-.43h0v-8.6h0a11.491,11.491,0,0,0-.249-2.58h0a4.118,4.118,0,0,0-.769-1.7h0a3.346,3.346,0,0,0-1.2-.951h0a4.347,4.347,0,0,0-1.652-.272h0a3.676,3.676,0,0,0-2.852,1.222h0a4.954,4.954,0,0,0-1.109,3.417h0v9.46h0a.38.38,0,0,1-.43.43h-1.267q-.453,0-.453-.43h0V3.825h0q0-.43.453-.43h1.267a.38.38,0,0,1,.43.43h0v8.668h0a5.117,5.117,0,0,1,1.924-1.652h0a5.286,5.286,0,0,1,2.263-.475h0a5.216,5.216,0,0,1,4.3,1.811h0q1.494,1.788,1.494,5.477Zm15.344,9.03h0a8.186,8.186,0,0,1-3.1.543h0q-2.9,0-3.712-1.7h0a10.241,10.241,0,0,1-.543-4.006h0V13.4h-4.119q-.453,0-.453-.43h0v-.951h0a.4.4,0,0,1,.453-.453h4.119V7.106h0q0-.475.407-.475h1.335q.407,0,.407.475h0v4.458h5.115q.43,0,.43.453h0v.951h0a.38.38,0,0,1-.43.43h-5.115v9.551h0q0,2.376,2.6,2.376h0a5.82,5.82,0,0,0,2.467-.543h0a.387.387,0,0,1,.317,0h0a.253.253,0,0,1,.136.249h0l.068,1.018h0A.59.59,0,0,1,187.8,26.683Zm5.183-2.059h0a11.457,11.457,0,0,0,4.187.792h0a5.055,5.055,0,0,0,3.055-.905h0a2.433,2.433,0,0,0,1.267-1.833h0a1.93,1.93,0,0,0-.7-1.471h0a7.946,7.946,0,0,0-1.72-1.154h0q-1.064-.566-2.1-1.086h0L194.881,17.9h0a4.292,4.292,0,0,1-1.743-1.471h0a3.157,3.157,0,0,1-.566-1.7h0a3.584,3.584,0,0,1,.453-1.811h0a4.337,4.337,0,0,1,1.2-1.381h0a5.078,5.078,0,0,1,1.856-.905h0a8.29,8.29,0,0,1,2.331-.317h0a14.773,14.773,0,0,1,2.082.136h0a12.668,12.668,0,0,1,1.969.453h0a.688.688,0,0,1,.362.181h0a.365.365,0,0,1,.113.317h0l-.091,1.018h0a.387.387,0,0,1-.2.317h0a.441.441,0,0,1-.339,0h0a7.72,7.72,0,0,0-1.765-.475h0a12.237,12.237,0,0,0-1.9-.136h0q-3.847,0-3.847,2.6h0a1.468,1.468,0,0,0,.521,1h0a5.542,5.542,0,0,0,1.743,1.064h0q1.2.566,2.173,1.041h0q.951.453,2.127,1.086h0a5.19,5.19,0,0,1,1.924,1.7h0a4.012,4.012,0,0,1,.521,2.037h0a3.766,3.766,0,0,1-.543,1.878h0a4.233,4.233,0,0,1-1.448,1.516h0a7.225,7.225,0,0,1-2.059.86h0a9.1,9.1,0,0,1-2.376.317h0q-.769,0-1.358-.045h0q-.588-.023-1.109-.091h0q-.521-.068-1.041-.158h0a11.075,11.075,0,0,1-1.086-.249h0q-.521-.158-.475-.543h0l.158-1.245h0Q192.55,24.42,192.98,24.623Z" fill="#fff"/>
        </g>
        <g id="a17ae6eb-783e-496b-9249-47d4da03cd1c" transform="translate(-0.907 -4.13)">
          <path id="Trazado_3" data-name="Trazado 3" d="M11,25.366,21.35,32.729v6.956L1.137,25.305l20.213-14V18.2Zm38.854.331L36.411,16.33l-1.623,5.743,5.343,3.686-8.2,5.726-2.451,7.95v.645ZM32.045,4.188l4.864,1.407L25.029,46.647l-4.865-1.409Z" fill="url(#linear-gradient)"/>
        </g>
      </g>
    </g>
  </g>
</svg>
